<?xml version="1.0" encoding="UTF-8" standalone="no"?>
<svg
   xmlns:dc="http://purl.org/dc/elements/1.1/"
   xmlns:cc="http://creativecommons.org/ns#"
   xmlns:rdf="http://www.w3.org/1999/02/22-rdf-syntax-ns#"
   xmlns:svg="http://www.w3.org/2000/svg"
   xmlns="http://www.w3.org/2000/svg"
   xmlns:xlink="http://www.w3.org/1999/xlink"
   xmlns:sodipodi="http://sodipodi.sourceforge.net/DTD/sodipodi-0.dtd"
   xmlns:inkscape="http://www.inkscape.org/namespaces/inkscape"
   width="42"
   height="42"
   viewBox="0 0 42 42"
   fill="none"
   version="1.1"
   id="svg1039"
   sodipodi:docname="metawallet-ruboto-logo.svg"
   inkscape:version="1.0beta2 (unknown)">
  <metadata
     id="metadata1043">
    <rdf:RDF>
      <cc:Work
         rdf:about="">
        <dc:format>image/svg+xml</dc:format>
        <dc:type
           rdf:resource="http://purl.org/dc/dcmitype/StillImage" />
        <dc:title></dc:title>
      </cc:Work>
    </rdf:RDF>
  </metadata>
  <sodipodi:namedview
     pagecolor="#ffffff"
     bordercolor="#666666"
     inkscape:document-rotation="0"
     borderopacity="1"
     objecttolerance="10"
     gridtolerance="10"
     guidetolerance="10"
     inkscape:pageopacity="0"
     inkscape:pageshadow="2"
     inkscape:window-width="1920"
     inkscape:window-height="1015"
     id="namedview1041"
     showgrid="false"
     inkscape:zoom="4.9047619"
     inkscape:cx="13.875619"
     inkscape:cy="-9.856503"
     inkscape:window-x="0"
     inkscape:window-y="0"
     inkscape:window-maximized="1"
     inkscape:current-layer="svg1039" />
  <defs
     id="defs1037">
    <filter
       id="filter0_d"
       x="0.65517199"
       y="0.827586"
       width="36.689701"
       height="40.689701"
       filterUnits="userSpaceOnUse"
       color-interpolation-filters="sRGB">
      <feFlood
         flood-opacity="0"
         result="BackgroundImageFix"
         id="feFlood1022" />
      <feColorMatrix
         in="SourceAlpha"
         type="matrix"
         values="0 0 0 0 0 0 0 0 0 0 0 0 0 0 0 0 0 0 127 0"
         id="feColorMatrix1024" />
      <feOffset
         dy="1.17241"
         id="feOffset1026" />
      <feGaussianBlur
         stdDeviation="1.17241"
         id="feGaussianBlur1028" />
      <feColorMatrix
         type="matrix"
         values="0 0 0 0 0 0 0 0 0 0 0 0 0 0 0 0 0 0 0.25 0"
         id="feColorMatrix1030" />
      <feBlend
         mode="normal"
         in2="BackgroundImageFix"
         result="effect1_dropShadow"
         id="feBlend1032" />
      <feBlend
         mode="normal"
         in="SourceGraphic"
         in2="effect1_dropShadow"
         result="shape"
         id="feBlend1034" />
    </filter>
    <filter
       height="1.6577318"
       y="-0.32886591"
       width="44.559983"
       x="-21.779992"
       id="filter926"
       style="color-interpolation-filters:sRGB"
       inkscape:collect="always">
      <feGaussianBlur
         id="feGaussianBlur928"
         stdDeviation="0.35866055"
         inkscape:collect="always" />
    </filter>
    <filter
       inkscape:collect="always"
       style="color-interpolation-filters:sRGB"
       id="filter974"
       x="-5.5756778"
       width="12.151356"
       y="-0.084189674"
       height="1.1683793">
      <feGaussianBlur
         inkscape:collect="always"
         stdDeviation="0.091817101"
         id="feGaussianBlur972" />
    </filter>
    <filter
       height="1.6293994"
       y="-0.3146997"
       width="1.5659568"
       x="-0.28297839"
       id="filter976"
       style="color-interpolation-filters:sRGB"
       inkscape:collect="always">
      <feGaussianBlur
         id="feGaussianBlur978"
         stdDeviation="34.147681"
         inkscape:collect="always" />
    </filter>
  </defs>
  <g
     style="fill:#000000;filter:url(#filter926)"
     inkscape:transform-center-y="-0.027104813"
     inkscape:transform-center-x="0.20524557"
     transform="matrix(0.46145707,0.00270315,-0.00270315,0.46145707,32.746153,3.8159464)"
     id="g924">
    <g
       style="opacity:0.336933;fill:#000000;filter:url(#filter976)"
       transform="matrix(0.09681314,0,0,0.09681314,-46.110898,-7.9209075)"
       id="g922">
      <g
         style="fill:#000000"
         id="g894"
         transform="translate(-1.80028)">
        <path
           inkscape:connector-curvature="0"
           sodipodi:nodetypes="cccc"
           id="path882"
           d="m 108.86115,175.14236 54.10909,-59.0158 175.42313,0.54143 59.53639,58.0676"
           style="fill:#000000;fill-opacity:1;stroke:none;stroke-width:12.013;stroke-linecap:round;stroke-linejoin:round;stroke-miterlimit:4;stroke-dasharray:none;stroke-opacity:1" />
        <path
           inkscape:connector-curvature="0"
           style="fill:#000000;stroke:#000000;stroke-width:6;stroke-linecap:round;stroke-opacity:1"
           id="path884"
           d="m 326.28146,96.645792 -24,36.000008" />
        <path
           inkscape:connector-curvature="0"
           style="fill:#000000;stroke:#000000;stroke-width:6;stroke-linecap:round;stroke-opacity:1"
           id="path886"
           d="m 179.13282,97.187222 24,36.000008" />
      </g>
      <g
         style="fill:#000000"
         id="g908"
         transform="translate(-0.0291135)">
        <g
           style="fill:#000000"
           transform="translate(-3.2485758,18.950028)"
           id="g900">
          <path
             inkscape:connector-curvature="0"
             d="m 216,300 v 38"
             id="path898"
             style="fill:#000000;stroke:#000000;stroke-width:36;stroke-linecap:round;stroke-opacity:1" />
        </g>
        <g
           style="fill:#000000"
           transform="translate(6.4971528,18.950028)"
           id="g906">
          <path
             inkscape:connector-curvature="0"
             d="m 284,300 v 38"
             id="path904"
             style="fill:#000000;stroke:#000000;stroke-width:36;stroke-linecap:round;stroke-opacity:1" />
        </g>
      </g>
      <path
         inkscape:connector-curvature="0"
         style="fill:#000000;fill-opacity:1;stroke:none;stroke-width:12;stroke-linecap:round;stroke-linejoin:round;stroke-miterlimit:4;stroke-opacity:1"
         d="m 106.78423,175.14235 289.62189,0.54143 -144.9463,146.84131 z"
         id="path910"
         sodipodi:nodetypes="cccc" />
      <g
         style="fill:#000000"
         id="g920">
        <g
           style="fill:#000000"
           transform="translate(-22.198605,45.750783)"
           id="g916">
          <path
             inkscape:connector-curvature="0"
             sodipodi:nodetypes="cc"
             d="m 136,172.28716 -0.54143,58.5914"
             id="path914"
             style="fill:#000000;fill-opacity:1;stroke:#000000;stroke-width:36;stroke-linecap:round;stroke-opacity:1" />
          <path
             transform="matrix(-87.275455,0.5112472,0.15211787,25.968176,478.3501,147.98623)"
             style="fill:#000000;fill-opacity:1;stroke:#000000;stroke-width:1.60833;stroke-linecap:round;stroke-opacity:1;filter:url(#filter974)"
             id="path914-7"
             d="M 0.84368762,0.80416578 0.80416578,3.4216013"
             sodipodi:nodetypes="cc"
             inkscape:connector-curvature="0" />
        </g>
      </g>
    </g>
  </g>
  <g
     id="g1710"
     transform="matrix(0.46145707,0.00270315,-0.00270315,0.46145707,31.012466,2.2678001)"
     inkscape:transform-center-x="0.20524557"
     inkscape:transform-center-y="-0.027104813">
    <g
       id="g4028"
       transform="matrix(0.09681314,0,0,0.09681314,-46.110898,-7.9209075)">
      <g
         transform="translate(-1.80028)"
         id="g4012">
        <path
           sodipodi:nodetypes="cc"
           d="m 178.32068,97.457932 23.64073,35.867178"
           id="path2500"
           style="stroke:#ffffff;stroke-width:30;stroke-linecap:round"
           inkscape:connector-curvature="0" />
        <path
           sodipodi:nodetypes="cc"
           d="M 326.28146,96.645792 302.37001,132.24225"
           id="path2498"
           style="stroke:#ffffff;stroke-width:30;stroke-linecap:round"
           inkscape:connector-curvature="0" />
        <path
           style="fill:#c81010;fill-opacity:1;stroke:#ffffff;stroke-width:12;stroke-linecap:round;stroke-linejoin:round;stroke-miterlimit:4;stroke-dasharray:none;stroke-opacity:1"
           d="m 108.86115,175.14236 54.10909,-59.0158 175.42313,0.54143 59.53639,58.0676"
           id="path2880"
           sodipodi:nodetypes="cccc"
           inkscape:connector-curvature="0" />
        <path
           d="m 326.28146,96.645792 -24,36.000008"
           id="path2522"
           style="fill:#c83737;stroke:#c81010;stroke-width:6;stroke-linecap:round;stroke-opacity:1"
           inkscape:connector-curvature="0" />
        <path
           d="m 179.13282,97.187222 24,36.000008"
           id="path2524"
           style="fill:#c83737;stroke:#c81010;stroke-width:6;stroke-linecap:round;stroke-opacity:1"
           inkscape:connector-curvature="0" />
        <g
           transform="translate(2.0418816)"
           id="g4008">
          <circle
             transform="translate(-6.497153,47.375071)"
             id="circle2516"
             r="9"
             cy="99"
             cx="214"
             style="fill:#ffffff;stroke:none" />
          <circle
             transform="translate(9.2042997,47.375071)"
             id="circle2518"
             r="9"
             cy="99"
             cx="286"
             style="fill:#ffffff;stroke:none" />
        </g>
      </g>
      <g
         transform="translate(-0.0291135)"
         id="g4000">
        <g
           id="g2993"
           transform="translate(-3.2485758,18.950028)">
          <path
             style="stroke:#ffffff;stroke-width:60;stroke-linecap:round"
             id="path2502"
             d="m 216,300 v 38"
             inkscape:connector-curvature="0" />
          <path
             style="fill:#c83737;stroke:#c81010;stroke-width:36;stroke-linecap:round;stroke-opacity:1"
             id="path2526"
             d="m 216,300 v 38"
             inkscape:connector-curvature="0" />
        </g>
        <g
           id="g2997"
           transform="translate(6.4971528,18.950028)">
          <path
             style="stroke:#ffffff;stroke-width:60;stroke-linecap:round"
             id="path2504"
             d="m 284,300 v 38"
             inkscape:connector-curvature="0" />
          <path
             style="fill:#c83737;stroke:#c81010;stroke-width:36;stroke-linecap:round;stroke-opacity:1"
             id="path2528"
             d="m 284,300 v 38"
             inkscape:connector-curvature="0" />
        </g>
      </g>
      <path
         sodipodi:nodetypes="cccc"
         id="rect2990"
         d="m 106.78423,175.14235 289.62189,0.54143 -144.9463,146.84131 z"
         style="fill:#c81010;fill-opacity:1;stroke:#ffffff;stroke-width:12;stroke-linecap:round;stroke-linejoin:round;stroke-miterlimit:4;stroke-opacity:1"
         inkscape:connector-curvature="0" />
      <g
         id="g4022">
        <g
           id="g2965"
           transform="translate(-22.198605,45.750783)">
          <path
             style="stroke:#ffffff;stroke-width:60;stroke-linecap:round"
             id="path2506"
             d="m 136,172.28716 v 59.13283"
             sodipodi:nodetypes="cc"
             inkscape:connector-curvature="0" />
          <path
             style="fill:#c81010;fill-opacity:1;stroke:#c81010;stroke-width:36;stroke-linecap:round;stroke-opacity:1"
             id="path2530"
             d="m 136,172.28716 -0.54143,58.5914"
             sodipodi:nodetypes="cc"
             inkscape:connector-curvature="0" />
        </g>
        <use
           x="0"
           y="0"
           xlink:href="#g2965"
           id="use3157"
           transform="translate(275.58756)"
           width="500"
           height="500" />
      </g>
    </g>
  </g>
  <g
     transform="translate(2.038835,-0.2038835)"
     filter="url(#filter0_d)"
     id="g1020">
    <path
       fill-rule="evenodd"
       clip-rule="evenodd"
       d="M 3,19.025 C 3,17.3543 4.36802,16 6.05556,16 H 29.9444 C 31.632,16 33,17.3543 33,19.025 v 5.1051 H 31.3333 V 19.025 c 0,-0.7594 -0.6218,-1.375 -1.3889,-1.375 H 6.05556 c -0.76707,0 -1.38889,0.6156 -1.38889,1.375 v 15.95 c 0,0.7594 0.62182,1.375 1.38889,1.375 H 29.9444 c 0.7671,0 1.3889,-0.6156 1.3889,-1.375 V 29.8699 H 33 V 34.975 C 33,36.6457 31.632,38 29.9444,38 H 6.05556 C 4.36802,38 3,36.6457 3,34.975 Z"
       fill="#99CEFF"
       id="path1006"
       inkscape:connector-curvature="0" />
    <path
       d="M 21.685,25.6436 22,24.0479 c 0,-0.1064 -0.0525,-0.1862 -0.1575,-0.1862 h -2.0739 l 0.315,-1.7021 C 20.1098,22.0798 20.0311,22 19.9523,22 h -1.9689 c -0.1575,0 -0.315,0.133 -0.3413,0.2926 l -0.7088,3.6436 h -2.4414 l 0.735,-3.7766 C 15.2269,22.0798 15.1482,22 15.0432,22 h -1.969 c -0.1575,0 -0.315,0.133 -0.3412,0.2926 l -0.3151,1.5691 h -1.9426 c -0.1575,0 -0.3151,0.133 -0.3413,0.2926 L 9.81897,25.75 c -0.02625,0.1064 0.0525,0.1862 0.13126,0.1862 h 2.07397 l -0.3938,2.0744 H 9.66145 c -0.15751,0 -0.31502,0.133 -0.34127,0.2926 l -0.31503,1.5957 c -0.02625,0.1064 0.0525,0.1862 0.13126,0.1862 h 2.07389 l -0.315,1.7021 c -0.0262,0.1064 0.0525,0.1862 0.1313,0.1862 h 1.9689 c 0.1575,0 0.315,-0.133 0.3413,-0.2925 l 0.7088,-3.6437 h 2.4414 l -0.735,3.7766 C 15.7257,31.9202 15.8045,32 15.8832,32 h 2.0477 c 0.1575,0 0.315,-0.133 0.3413,-0.2926 l 0.315,-1.5691 h 1.9689 c 0.1575,0 0.3151,-0.133 0.3413,-0.2926 l 0.315,-1.5957 c 0.0263,-0.1064 -0.0525,-0.1862 -0.1312,-0.1862 h -2.074 l 0.3938,-2.0744 h 1.9689 c 0.1313,-0.0532 0.2888,-0.1862 0.3151,-0.3458 z"
       fill="#99CEFF"
       id="path1008"
       inkscape:connector-curvature="0" />
    <path
       fill-rule="evenodd"
       clip-rule="evenodd"
       d="M 35,29.25 C 35,30.2165 34.1643,31 33.1333,31 h -2.4 C 28.6715,31 27,29.433 27,27.5 27,25.567 28.6715,24 30.7333,24 h 2.4 C 34.1643,24 35,24.7835 35,25.75 Z m -1.8667,0.25 c 0.1473,0 0.2667,-0.1119 0.2667,-0.25 v -3.5 c 0,-0.1381 -0.1194,-0.25 -0.2667,-0.25 h -2.4 c -1.1782,0 -2.1333,0.8954 -2.1333,2 0,1.1046 0.9551,2 2.1333,2 z"
       fill="#99CEFF"
       id="path1010"
       inkscape:connector-curvature="0" />
    <path
       d="m 33,27 c 0,1.1046 -0.8954,2 -2,2 -1.1046,0 -2,-0.8954 -2,-2 0,-1.1046 0.8954,-2 2,-2 1.1046,0 2,0.8954 2,2 z"
       fill="#99CEFF"
       id="path1012"
       inkscape:connector-curvature="0" />
    <path
       d="M 27,10.5 C 27,12.433 25.6569,14 24,14 22.3431,14 21,12.433 21,10.5 21,8.567 22.3431,7 24,7 c 1.6569,0 3,1.567 3,3.5 z"
       fill="#99CEFF"
       id="path1014"
       inkscape:connector-curvature="0"
       style="display:none" />
    <path
       d="m 14,10 c -2.2091,0 -4,2.2386 -4,5 h 8 c 0,-2.7614 -1.7909,-5 -4,-5 z"
       fill="#99CEFF"
       id="path1016"
       inkscape:connector-curvature="0"
       style="display:none" />
    <path
       d="M 20,5.5 C 20,7.433 18.433,9 16.5,9 14.567,9 13,7.433 13,5.5 13,3.567 14.567,2 16.5,2 18.433,2 20,3.567 20,5.5 Z"
       fill="#99CEFF"
       id="path1018"
       inkscape:connector-curvature="0"
       style="display:none" />
  </g>
</svg>
